<svg width="784" height="224" viewBox="0 0 784 224" fill="none" xmlns="http://www.w3.org/2000/svg">
<g clip-path="url(#clip0_1959_2)">
<rect width="784" height="224" fill="white"/>
<path d="M437.847 130C433.317 129.998 428.915 131.503 425.335 134.279L410.531 122.748C411.648 120.186 412.224 117.42 412.222 114.625C412.222 114.151 412.222 113.677 412.171 113.209L420.646 110.384C423.327 114.519 427.409 117.551 432.143 118.922C436.877 120.293 441.947 119.913 446.424 117.851C450.9 115.789 454.484 112.183 456.519 107.694C458.553 103.205 458.902 98.1327 457.502 93.4071C456.102 88.6814 453.046 84.6185 448.894 81.9625C444.742 79.3065 439.772 78.2352 434.895 78.9449C430.018 79.6546 425.559 82.0977 422.337 85.8268C419.114 89.5559 417.342 94.3212 417.347 99.2499C417.347 99.724 417.347 100.198 417.398 100.666L408.923 103.491C407.065 100.619 404.517 98.2568 401.513 96.6209C398.509 94.985 395.143 94.1269 391.722 94.1249C390.591 94.1273 389.462 94.2215 388.346 94.4068L383.964 84.5156C387.748 81.4924 390.339 77.2273 391.278 72.4762C392.217 67.7251 391.444 62.7948 389.096 58.5592C386.747 54.3237 382.975 51.0563 378.448 49.3363C373.92 47.6164 368.93 47.5548 364.362 49.1626C359.793 50.7704 355.942 53.9437 353.489 58.12C351.037 62.2964 350.143 67.2061 350.965 71.9789C351.787 76.7518 354.272 81.0795 357.98 84.1951C361.688 87.3106 366.379 89.0128 371.222 88.9999C372.353 88.9976 373.482 88.9033 374.598 88.7181L378.98 98.5837C375.264 101.525 372.685 105.665 371.683 110.297C370.682 114.929 371.32 119.765 373.49 123.978L357.019 138.61C352.874 135.816 347.852 134.629 342.895 135.272C337.938 135.916 333.385 138.345 330.091 142.105C326.797 145.864 324.987 150.697 325 155.696C325.014 160.694 326.85 165.517 330.165 169.259C333.479 173.001 338.045 175.405 343.006 176.022C347.966 176.638 352.982 175.424 357.111 172.607C361.241 169.791 364.202 165.564 365.438 160.721C366.675 155.877 366.103 150.749 363.829 146.297L380.299 131.666C383.866 134.067 388.098 135.282 392.395 135.14C396.692 134.997 400.834 133.503 404.233 130.871L419.038 142.402C417.924 144.957 417.348 147.713 417.347 150.5C417.347 154.554 418.549 158.518 420.802 161.889C423.054 165.26 426.256 167.888 430.002 169.439C433.748 170.991 437.87 171.397 441.846 170.606C445.823 169.815 449.476 167.863 452.343 164.996C455.21 162.129 457.162 158.476 457.953 154.499C458.744 150.523 458.338 146.401 456.786 142.655C455.235 138.909 452.607 135.707 449.236 133.455C445.865 131.202 441.901 130 437.847 130ZM437.847 88.9999C439.874 88.9999 441.856 89.6011 443.541 90.7274C445.227 91.8536 446.541 93.4545 447.317 95.3274C448.092 97.2004 448.295 99.2613 447.9 101.25C447.504 103.238 446.528 105.064 445.095 106.498C443.661 107.931 441.835 108.907 439.847 109.303C437.858 109.698 435.797 109.495 433.924 108.72C432.051 107.944 430.451 106.63 429.324 104.945C428.198 103.259 427.597 101.277 427.597 99.2499C427.597 96.5315 428.677 93.9243 430.599 92.0021C432.521 90.0798 435.128 88.9999 437.847 88.9999ZM360.972 68.4999C360.972 66.4727 361.573 64.4909 362.699 62.8053C363.826 61.1197 365.426 59.806 367.299 59.0302C369.172 58.2544 371.233 58.0514 373.222 58.4469C375.21 58.8424 377.036 59.8186 378.47 61.2521C379.903 62.6856 380.879 64.5119 381.275 66.5003C381.67 68.4886 381.467 70.5495 380.692 72.4224C379.916 74.2954 378.602 75.8962 376.916 77.0225C375.231 78.1488 373.249 78.7499 371.222 78.7499C368.503 78.7499 365.896 77.67 363.974 75.7478C362.052 73.8255 360.972 71.2184 360.972 68.4999ZM345.597 165.875C343.57 165.875 341.588 165.274 339.902 164.147C338.217 163.021 336.903 161.42 336.127 159.547C335.351 157.674 335.148 155.614 335.544 153.625C335.939 151.637 336.916 149.811 338.349 148.377C339.782 146.944 341.609 145.967 343.597 145.572C345.585 145.176 347.646 145.379 349.519 146.155C351.392 146.931 352.993 148.245 354.119 149.93C355.246 151.616 355.847 153.598 355.847 155.625C355.847 158.343 354.767 160.951 352.845 162.873C350.922 164.795 348.315 165.875 345.597 165.875ZM381.472 114.625C381.472 112.598 382.073 110.616 383.199 108.93C384.326 107.245 385.926 105.931 387.799 105.155C389.672 104.379 391.733 104.176 393.722 104.572C395.71 104.967 397.536 105.944 398.97 107.377C400.403 108.811 401.379 110.637 401.775 112.625C402.17 114.614 401.967 116.674 401.192 118.547C400.416 120.42 399.102 122.021 397.416 123.147C395.731 124.274 393.749 124.875 391.722 124.875C389.003 124.875 386.396 123.795 384.474 121.873C382.552 119.951 381.472 117.343 381.472 114.625ZM437.847 160.75C435.82 160.75 433.838 160.149 432.152 159.022C430.467 157.896 429.153 156.295 428.377 154.422C427.601 152.549 427.398 150.489 427.794 148.5C428.189 146.512 429.166 144.686 430.599 143.252C432.032 141.819 433.859 140.842 435.847 140.447C437.835 140.051 439.896 140.254 441.769 141.03C443.642 141.806 445.243 143.12 446.369 144.805C447.496 146.491 448.097 148.473 448.097 150.5C448.097 153.218 447.017 155.826 445.095 157.748C443.172 159.67 440.565 160.75 437.847 160.75Z" fill="url(#paint0_radial_1959_2)"/>
<g opacity="0.2" filter="url(#filter0_f_1959_2)">
<circle cx="392" cy="112" r="82" fill="url(#paint1_radial_1959_2)"/>
</g>
</g>
<defs>
<filter id="filter0_f_1959_2" x="110" y="-170" width="564" height="564" filterUnits="userSpaceOnUse" color-interpolation-filters="sRGB">
<feFlood flood-opacity="0" result="BackgroundImageFix"/>
<feBlend mode="normal" in="SourceGraphic" in2="BackgroundImageFix" result="shape"/>
<feGaussianBlur stdDeviation="100" result="effect1_foregroundBlur_1959_2"/>
</filter>
<radialGradient id="paint0_radial_1959_2" cx="0" cy="0" r="1" gradientUnits="userSpaceOnUse" gradientTransform="translate(391.673 112.089) rotate(90) scale(64.0892 66.6734)">
<stop stop-color="#44D1F5"/>
<stop offset="1" stop-color="#22F5D1"/>
</radialGradient>
<radialGradient id="paint1_radial_1959_2" cx="0" cy="0" r="1" gradientUnits="userSpaceOnUse" gradientTransform="translate(392 112) rotate(-64.049) scale(99.1204)">
<stop stop-color="#7DCD87"/>
<stop offset="0.454757" stop-color="#72BBBF"/>
<stop offset="1" stop-color="#68A9F4"/>
</radialGradient>
<clipPath id="clip0_1959_2">
<rect width="784" height="224" fill="white"/>
</clipPath>
</defs>
</svg>
