<svg width="784" height="224" viewBox="0 0 784 224" fill="none" xmlns="http://www.w3.org/2000/svg">
<g clip-path="url(#clip0_1922_20)">
<rect width="784" height="224" fill="url(#paint0_linear_1922_20)"/>
<path d="M443.25 50.5H427.875V45.375C427.875 44.0158 427.335 42.7122 426.374 41.7511C425.413 40.79 424.109 40.25 422.75 40.25C421.391 40.25 420.087 40.79 419.126 41.7511C418.165 42.7122 417.625 44.0158 417.625 45.375V50.5H366.375V45.375C366.375 44.0158 365.835 42.7122 364.874 41.7511C363.913 40.79 362.609 40.25 361.25 40.25C359.891 40.25 358.587 40.79 357.626 41.7511C356.665 42.7122 356.125 44.0158 356.125 45.375V50.5H340.75C338.032 50.5 335.424 51.5799 333.502 53.5022C331.58 55.4244 330.5 58.0315 330.5 60.75V163.25C330.5 165.968 331.58 168.576 333.502 170.498C335.424 172.42 338.032 173.5 340.75 173.5H443.25C445.968 173.5 448.576 172.42 450.498 170.498C452.42 168.576 453.5 165.968 453.5 163.25V60.75C453.5 58.0315 452.42 55.4244 450.498 53.5022C448.576 51.5799 445.968 50.5 443.25 50.5ZM443.25 163.25H340.75V60.75H356.125V65.875C356.125 67.2342 356.665 68.5378 357.626 69.4989C358.587 70.46 359.891 71 361.25 71C362.609 71 363.913 70.46 364.874 69.4989C365.835 68.5378 366.375 67.2342 366.375 65.875V60.75H417.625V65.875C417.625 67.2342 418.165 68.5378 419.126 69.4989C420.087 70.46 421.391 71 422.75 71C424.109 71 425.413 70.46 426.374 69.4989C427.335 68.5378 427.875 67.2342 427.875 65.875V60.75H443.25V163.25ZM407.375 86.375C404.465 86.3734 401.588 86.9932 398.936 88.193C396.285 89.3928 393.92 91.1449 392 93.3322C389.247 90.2103 385.608 88.0005 381.569 86.9967C377.529 85.9928 373.279 86.2426 369.385 87.7127C365.491 89.1828 362.136 91.8036 359.767 95.2266C357.399 98.6495 356.128 102.712 356.125 106.875C356.125 130.271 388.336 146.645 389.707 147.337C390.419 147.693 391.204 147.879 392 147.879C392.796 147.879 393.581 147.693 394.293 147.337C395.664 146.645 427.875 130.271 427.875 106.875C427.875 101.438 425.715 96.2238 421.871 92.3793C418.026 88.5348 412.812 86.375 407.375 86.375ZM392 136.94C383.166 131.949 366.375 119.803 366.375 106.875C366.375 104.157 367.455 101.549 369.377 99.6272C371.299 97.7049 373.907 96.625 376.625 96.625C379.343 96.625 381.951 97.7049 383.873 99.6272C385.795 101.549 386.875 104.157 386.875 106.875C386.875 108.234 387.415 109.538 388.376 110.499C389.337 111.46 390.641 112 392 112C393.359 112 394.663 111.46 395.624 110.499C396.585 109.538 397.125 108.234 397.125 106.875C397.125 104.157 398.205 101.549 400.127 99.6272C402.049 97.7049 404.657 96.625 407.375 96.625C410.093 96.625 412.701 97.7049 414.623 99.6272C416.545 101.549 417.625 104.157 417.625 106.875C417.625 119.809 400.834 131.955 392 136.94Z" fill="url(#paint1_radial_1922_20)"/>
<g opacity="0.2" filter="url(#filter0_f_1922_20)">
<circle cx="392" cy="112" r="82" fill="url(#paint2_radial_1922_20)"/>
</g>
</g>
<defs>
<filter id="filter0_f_1922_20" x="110" y="-170" width="564" height="564" filterUnits="userSpaceOnUse" color-interpolation-filters="sRGB">
<feFlood flood-opacity="0" result="BackgroundImageFix"/>
<feBlend mode="normal" in="SourceGraphic" in2="BackgroundImageFix" result="shape"/>
<feGaussianBlur stdDeviation="100" result="effect1_foregroundBlur_1922_20"/>
</filter>
<linearGradient id="paint0_linear_1922_20" x1="392" y1="0" x2="392" y2="224" gradientUnits="userSpaceOnUse">
<stop stop-color="#1C2A2E"/>
<stop offset="1" stop-color="#151B1D"/>
</linearGradient>
<radialGradient id="paint1_radial_1922_20" cx="0" cy="0" r="1" gradientUnits="userSpaceOnUse" gradientTransform="translate(392 106.875) scale(61.5 66.625)">
<stop stop-color="#44D1F5"/>
<stop offset="1" stop-color="#22F5D1"/>
</radialGradient>
<radialGradient id="paint2_radial_1922_20" cx="0" cy="0" r="1" gradientUnits="userSpaceOnUse" gradientTransform="translate(392 112) rotate(-64.049) scale(99.1204)">
<stop stop-color="#7DCD87"/>
<stop offset="0.454757" stop-color="#72BBBF"/>
<stop offset="1" stop-color="#68A9F4"/>
</radialGradient>
<clipPath id="clip0_1922_20">
<rect width="784" height="224" fill="white"/>
</clipPath>
</defs>
</svg>
